<svg xmlns="http://www.w3.org/2000/svg" width="104" height="104" viewBox="0 0 104 104" fill="none"><rect width="104" height="104" rx="52" fill="#1AAF56"></rect><g clip-path="url(#clip0_793_293)"><path d="M75.2956 52.9469H73.4362C73.5182 52.7815 73.5997 52.6161 73.6786 52.4483C76.4591 46.5398 75.2925 38.7259 71.0226 34.6592C69.4574 33.1684 67.5355 32.267 65.465 32.0523C63.1773 31.8152 60.7202 32.3847 58.161 33.7451C57.996 33.8329 57.8726 33.9825 57.8179 34.1612C57.7633 34.3399 57.7819 34.533 57.8696 34.698C57.9573 34.863 58.107 34.9863 58.2857 35.041C58.4644 35.0956 58.6575 35.077 58.8225 34.9893C63.1693 32.6785 67.1572 32.9236 70.0513 35.6795C73.9084 39.3532 74.9419 46.4554 72.4041 51.8484C72.2288 52.2208 72.0456 52.5869 71.8542 52.9468H67.0294C66.8815 52.9467 66.7374 52.9933 66.6174 53.0797C66.4975 53.1662 66.4077 53.2882 66.361 53.4285L65.8158 55.0652L63.97 41.5327C63.9475 41.3676 63.8672 41.2158 63.7434 41.1043C63.6196 40.9928 63.4603 40.9288 63.2937 40.9237C63.1272 40.9185 62.9642 40.9726 62.8338 41.0762C62.7033 41.1798 62.6138 41.3264 62.5812 41.4897L59.3777 57.5066L57.9353 52.6974C57.8918 52.5523 57.8026 52.4251 57.6811 52.3347C57.5595 52.2443 57.4121 52.1954 57.2606 52.1954H57.2514C57.0984 52.1973 56.9502 52.249 56.8292 52.3427C56.7081 52.4363 56.6209 52.5669 56.5807 52.7145L55.0881 58.1872L53.4402 50.4978C53.4081 50.3485 53.3282 50.2136 53.2128 50.1136C53.0973 50.0136 52.9524 49.9538 52.8 49.9433C52.6476 49.9327 52.4959 49.9721 52.3677 50.0553C52.2396 50.1385 52.142 50.2611 52.0897 50.4047L50.0453 56.0265L48.9399 48.2914C48.9184 48.1399 48.8481 47.9996 48.7398 47.8917C48.6315 47.7837 48.491 47.7139 48.3395 47.6928C48.188 47.6717 48.0338 47.7005 47.9001 47.7749C47.7664 47.8492 47.6606 47.965 47.5985 48.1048L44.7787 54.4497H42.9823C42.8252 54.4497 42.6726 54.5022 42.5488 54.5989C42.425 54.6955 42.337 54.8309 42.2989 54.9833L41.7916 57.0126L40.6779 45.3183C40.6627 45.1591 40.5939 45.0099 40.4826 44.895C40.3714 44.7802 40.2244 44.7066 40.0658 44.6864C39.9072 44.6661 39.7465 44.7004 39.6099 44.7836C39.4734 44.8669 39.3693 44.994 39.3146 45.1443L36.4772 52.9468H32.1462C31.9556 52.5863 31.7723 52.2202 31.5963 51.8484C30.2678 49.0253 29.8801 45.5458 30.5327 42.3015C31.1789 39.0885 32.7912 36.3733 34.9559 34.8519C36.9249 33.4679 39.2316 33.075 41.8113 33.6835C44.8528 34.4009 48.1132 36.4829 51.5019 39.8716C51.635 40.0021 51.8138 40.0751 52.0001 40.0751C52.1864 40.0751 52.3653 40.0021 52.4983 39.8716C53.5986 38.7608 54.7764 37.7295 56.0227 36.7855C56.1724 36.6735 56.2714 36.5068 56.298 36.3218C56.3247 36.1369 56.2768 35.9489 56.1648 35.7993C56.0529 35.6497 55.8861 35.5507 55.7012 35.524C55.5162 35.4974 55.3283 35.5453 55.1787 35.6572C54.0633 36.4994 53.0017 37.4105 52.0003 38.3854C48.5978 35.0962 45.2817 33.0544 42.1348 32.3124C39.1885 31.6174 36.4258 32.0971 34.1458 33.6997C31.6524 35.4513 29.8787 38.4078 29.1515 42.0236C28.4301 45.6099 28.8457 49.3121 30.3215 52.4482C30.4004 52.6157 30.4819 52.7814 30.5639 52.9467H28.7045C28.5176 52.9467 28.3384 53.0209 28.2063 53.153C28.0742 53.2852 27.9999 53.4644 27.9999 53.6512C27.9999 53.8381 28.0742 54.0173 28.2063 54.1494C28.3384 54.2815 28.5176 54.3558 28.7045 54.3558H31.3115C34.5777 60.1108 39.5552 64.3143 43.3347 66.9126C47.8561 70.0212 51.582 71.5264 51.7383 71.5891C51.9063 71.6558 52.0935 71.6558 52.2616 71.5891C52.4177 71.5265 56.1437 70.0213 60.6652 66.9126C64.4448 64.3142 69.4222 60.1106 72.6883 54.3555H75.2955C75.4823 54.3555 75.6615 54.2813 75.7936 54.1492C75.9257 54.017 75.9999 53.8379 75.9999 53.651C75.9999 53.4642 75.9257 53.285 75.7936 53.1529C75.6615 53.0208 75.4823 52.9466 75.2955 52.9466L75.2956 52.9469ZM59.896 65.732C56.1673 68.2993 52.9227 69.7733 51.9998 70.171C51.0805 69.7752 47.8562 68.3116 44.1329 65.7518C40.6347 63.3469 36.0784 59.5259 32.9458 54.356H36.9707C37.1153 54.356 37.2564 54.3115 37.3749 54.2286C37.4933 54.1456 37.5834 54.0282 37.6328 53.8923L39.5714 48.5613L40.7784 61.233C40.7941 61.3984 40.8679 61.5529 40.9865 61.6692C41.1052 61.7855 41.2612 61.8561 41.4269 61.8686C41.5925 61.881 41.7573 61.8345 41.892 61.7373C42.0268 61.64 42.1228 61.4983 42.1631 61.3371L43.5325 55.8589H45.2369C45.3731 55.8589 45.5065 55.8194 45.6208 55.7451C45.735 55.6709 45.8253 55.5651 45.8806 55.4405L47.8917 50.9157L49.0486 59.0114C49.0708 59.1669 49.1443 59.3106 49.2575 59.4195C49.3707 59.5285 49.5171 59.5964 49.6734 59.6127C49.8297 59.6289 49.9869 59.5924 50.12 59.509C50.2532 59.4256 50.3547 59.3001 50.4083 59.1525L52.5766 53.1898L54.3174 61.3141C54.3504 61.4687 54.4343 61.6077 54.5557 61.7088C54.6771 61.8099 54.8291 61.8672 54.987 61.8716C55.145 61.876 55.2998 61.8271 55.4267 61.7329C55.5535 61.6386 55.645 61.5045 55.6864 61.352L57.2934 55.4596L58.8407 60.6174C58.8859 60.7679 58.9801 60.899 59.1084 60.9898C59.2367 61.0806 59.3916 61.126 59.5486 61.1186C59.7056 61.1112 59.8556 61.0515 59.9748 60.949C60.0939 60.8466 60.1754 60.7072 60.2063 60.5531L63.1413 45.8779L64.8283 58.2552C64.8498 58.4128 64.924 58.5585 65.0389 58.6686C65.1537 58.7787 65.3025 58.8467 65.4609 58.8615C65.6192 58.8762 65.778 58.837 65.9112 58.7501C66.0445 58.6632 66.1444 58.5337 66.1947 58.3828L67.537 54.3557H71.0541C67.928 59.515 63.3845 63.33 59.896 65.732Z" fill="white"></path></g><defs><clipPath id="clip0_793_293"><rect width="48" height="39.6391" fill="white" transform="translate(28 32)"></rect></clipPath></defs></svg>