<svg xmlns="http://www.w3.org/2000/svg" width="104" height="104" viewBox="0 0 104 104" fill="none"><rect width="104" height="104" rx="52" fill="#2D7FF9"></rect><g clip-path="url(#clip0_789_2)"><path d="M35.9647 38.5205C34.4438 38.5202 32.9803 39.101 31.8734 40.144C30.7666 41.1871 30.1 42.6135 30.01 44.1318C29.9201 45.65 30.4135 47.1452 31.3894 48.3116C32.3653 49.4781 33.75 50.2277 35.2603 50.407V55.0058C35.2603 55.1927 35.3345 55.3719 35.4666 55.504C35.5988 55.6361 35.778 55.7104 35.9648 55.7104C36.1517 55.7104 36.3309 55.6361 36.463 55.504C36.5951 55.3719 36.6694 55.1927 36.6694 55.0058V50.407C38.1797 50.2277 39.5644 49.4781 40.5403 48.3116C41.5162 47.1451 42.0096 45.6499 41.9196 44.1316C41.8296 42.6134 41.163 41.1869 40.0561 40.1439C38.9492 39.1009 37.4856 38.5202 35.9647 38.5205ZM35.9647 49.041C35.0636 49.041 34.1828 48.7738 33.4336 48.2732C32.6844 47.7726 32.1005 47.0611 31.7557 46.2286C31.4109 45.3962 31.3206 44.4802 31.4964 43.5964C31.6722 42.7127 32.1061 41.9009 32.7433 41.2638C33.3804 40.6266 34.1922 40.1927 35.0759 40.0169C35.9596 39.8412 36.8757 39.9314 37.7081 40.2762C38.5406 40.621 39.2521 41.2049 39.7527 41.9541C40.2533 42.7033 40.5205 43.5842 40.5205 44.4852C40.5191 45.6931 40.0387 46.8511 39.1846 47.7052C38.3305 48.5592 37.1726 49.0397 35.9647 49.041Z" fill="white"></path><path d="M35.9647 41.5264C35.3795 41.5264 34.8074 41.6999 34.3208 42.025C33.8342 42.3502 33.455 42.8123 33.231 43.353C33.0071 43.8936 32.9485 44.4886 33.0627 45.0626C33.1768 45.6365 33.4586 46.1638 33.8724 46.5776C34.2863 46.9914 34.8135 47.2732 35.3875 47.3874C35.9614 47.5015 36.5564 47.4429 37.0971 47.219C37.6377 46.995 38.0999 46.6158 38.425 46.1292C38.7501 45.6426 38.9237 45.0705 38.9237 44.4853C38.9228 43.7008 38.6107 42.9487 38.056 42.394C37.5013 41.8393 36.7492 41.5273 35.9647 41.5264ZM35.9647 46.0352C35.6582 46.0352 35.3586 45.9443 35.1037 45.774C34.8489 45.6037 34.6502 45.3616 34.5329 45.0784C34.4156 44.7952 34.385 44.4836 34.4448 44.183C34.5046 43.8824 34.6522 43.6062 34.8689 43.3895C35.0857 43.1727 35.3618 43.0251 35.6624 42.9653C35.9631 42.9055 36.2747 42.9362 36.5579 43.0535C36.8411 43.1708 37.0831 43.3694 37.2534 43.6243C37.4237 43.8791 37.5146 44.1788 37.5147 44.4853C37.5142 44.8962 37.3508 45.2902 37.0602 45.5808C36.7696 45.8713 36.3757 46.0348 35.9647 46.0352Z" fill="white"></path><path d="M73.1624 44.9081H72.7398V32.8377C72.7387 31.854 72.3474 30.9109 71.6518 30.2153C70.9562 29.5197 70.0131 29.1284 69.0294 29.1273H67.4795V28.7047C67.4795 28.6121 67.4613 28.5205 67.4259 28.435C67.3905 28.3495 67.3386 28.2719 67.2732 28.2064C67.2077 28.141 67.13 28.0891 67.0446 28.0537C66.9591 28.0183 66.8674 28.0001 66.7749 28.0001H64.8962C64.4127 28.0035 63.9501 28.198 63.6094 28.5411C63.2687 28.8843 63.0775 29.3482 63.0775 29.8318C63.0775 30.3153 63.2687 30.7792 63.6094 31.1224C63.9501 31.4655 64.4127 31.66 64.8962 31.6634H66.7749C66.9618 31.6634 67.1409 31.5892 67.2731 31.4571C67.4052 31.325 67.4794 31.1458 67.4794 30.9589V30.5358H69.0292C69.6394 30.5366 70.2244 30.7794 70.6558 31.2109C71.0872 31.6424 71.3298 32.2274 71.3304 32.8376V44.908H70.9078C70.721 44.908 70.5418 44.9823 70.4097 45.1144C70.2775 45.2465 70.2033 45.4257 70.2033 45.6125V46.7397C70.2016 48.2463 69.6023 49.6908 68.5369 50.7562C67.4715 51.8216 66.0271 52.4209 64.5204 52.4226H55.5029C53.9963 52.4209 52.5518 51.8216 51.4864 50.7562C50.421 49.6908 49.8217 48.2463 49.82 46.7397V45.6125C49.82 45.4257 49.7458 45.2465 49.6137 45.1144C49.4815 44.9823 49.3024 44.9081 49.1155 44.908H48.6929V32.8377C48.6936 32.2275 48.9363 31.6426 49.3677 31.2111C49.7992 30.7797 50.3841 30.537 50.9943 30.5363H52.5441V30.9589C52.5441 31.1458 52.6183 31.325 52.7505 31.4571C52.8826 31.5892 53.0618 31.6634 53.2486 31.6634H55.1273C55.6131 31.6634 56.079 31.4704 56.4225 31.1269C56.766 30.7834 56.959 30.3175 56.959 29.8317C56.959 29.3459 56.766 28.88 56.4225 28.5365C56.079 28.193 55.6131 28 55.1273 28H53.2485C53.0617 28 52.8825 28.0742 52.7504 28.2063C52.6182 28.3385 52.544 28.5177 52.544 28.7045V29.1271H50.9941C50.0104 29.1282 49.0673 29.5195 48.3717 30.2151C47.6761 30.9107 47.2848 31.8538 47.2837 32.8375V44.9081H46.8611C46.6743 44.9082 46.4951 44.9824 46.3631 45.1145C46.231 45.2466 46.1567 45.4257 46.1567 45.6125V46.7397C46.1594 49.2176 47.145 51.5933 48.8972 53.3455C50.6493 55.0978 53.025 56.0834 55.5029 56.0863H58.1801V59.5148C58.1801 59.7016 58.2543 59.8808 58.3864 60.0129C58.5186 60.1451 58.6977 60.2193 58.8846 60.2193H59.3072V64.0235C59.304 66.8252 58.1897 69.5113 56.2086 71.4923C54.2275 73.4734 51.5414 74.5878 48.7398 74.591H47.2369C44.4352 74.5878 41.7492 73.4734 39.7681 71.4923C37.787 69.5113 36.6726 66.8252 36.6694 64.0235V58.4192C36.6694 58.2323 36.5952 58.0531 36.463 57.921C36.3309 57.7889 36.1517 57.7146 35.9649 57.7146C35.778 57.7146 35.5988 57.7889 35.4667 57.921C35.3345 58.0531 35.2603 58.2323 35.2603 58.4192V64.0235C35.2638 67.1989 36.5267 70.2431 38.772 72.4884C41.0173 74.7337 44.0616 75.9966 47.2369 76.0001H48.7398C51.9151 75.9966 54.9593 74.7337 57.2046 72.4884C59.4499 70.2431 60.7128 67.1989 60.7163 64.0235V60.2193H61.1389C61.2314 60.2193 61.3231 60.2011 61.4085 60.1656C61.494 60.1302 61.5717 60.0784 61.6371 60.0129C61.7025 59.9475 61.7544 59.8699 61.7898 59.7844C61.8252 59.6989 61.8434 59.6073 61.8434 59.5148V56.0863H64.5206C66.9985 56.0835 69.3742 55.0979 71.1264 53.3457C72.8786 51.5935 73.8642 49.2178 73.867 46.7398V45.6125C73.8669 45.4257 73.7926 45.2466 73.6605 45.1145C73.5284 44.9824 73.3492 44.9082 73.1624 44.9081ZM66.0704 30.2545H64.8962C64.7842 30.2545 64.6767 30.21 64.5974 30.1307C64.5181 30.0515 64.4736 29.944 64.4736 29.8319C64.4736 29.7198 64.5181 29.6123 64.5974 29.5331C64.6767 29.4538 64.7842 29.4093 64.8962 29.4093H66.0704V30.2545ZM53.953 29.4093H55.1272C55.2393 29.4093 55.3468 29.4538 55.426 29.5331C55.5053 29.6123 55.5498 29.7198 55.5498 29.8319C55.5498 29.944 55.5053 30.0515 55.426 30.1307C55.3468 30.21 55.2393 30.2545 55.1272 30.2545H53.953V29.4093ZM72.4579 46.7397C72.4555 48.8441 71.6185 50.8616 70.1305 52.3497C68.6425 53.8377 66.625 54.6747 64.5206 54.6771H61.139C60.9522 54.6771 60.773 54.7513 60.6409 54.8834C60.5087 55.0156 60.4345 55.1948 60.4345 55.3816V58.8101H59.5893V55.3817C59.5893 55.1948 59.515 55.0157 59.3829 54.8835C59.2508 54.7514 59.0716 54.6772 58.8848 54.6772H55.503C53.3987 54.6748 51.3811 53.8378 49.8931 52.3498C48.4051 50.8617 47.5681 48.8442 47.5657 46.7398V46.3172H48.4109V46.7398C48.413 48.6201 49.1609 50.4228 50.4905 51.7523C51.82 53.0819 53.6227 53.8297 55.5029 53.8318H64.5206C66.4008 53.8297 68.2035 53.0819 69.533 51.7523C70.8626 50.4228 71.6105 48.6201 71.6126 46.7398V46.3172H72.4578V46.7398L72.4579 46.7397Z" fill="white"></path><path d="M60.0118 39.2725C58.4802 39.2742 57.0118 39.8834 55.9288 40.9664C54.8458 42.0494 54.2366 43.5178 54.2349 45.0494C54.2349 47.9609 56.3944 49.6991 60.0118 49.6991C63.6292 49.6991 65.7887 47.9609 65.7887 45.0494C65.787 43.5178 65.1778 42.0494 64.0948 40.9664C63.0118 39.8833 61.5434 39.2742 60.0118 39.2725ZM60.0118 48.2901C58.3806 48.2901 55.6439 47.869 55.6439 45.0494C55.6439 43.8909 56.1041 42.7799 56.9232 41.9608C57.7424 41.1416 58.8534 40.6815 60.0118 40.6815C61.1703 40.6815 62.2813 41.1416 63.1004 41.9608C63.9195 42.7799 64.3797 43.8909 64.3797 45.0494C64.3796 47.869 61.6431 48.2901 60.0118 48.2901Z" fill="white"></path><path d="M57.1937 33.6357C55.7539 33.6357 54.7984 35.4166 54.7984 36.5947C54.7984 37.2299 55.0508 37.8392 55.5 38.2884C55.9492 38.7376 56.5585 38.99 57.1938 38.99C57.829 38.99 58.4383 38.7376 58.8875 38.2884C59.3367 37.8392 59.5891 37.2299 59.5891 36.5947C59.589 35.4167 58.6337 33.6357 57.1937 33.6357ZM57.1937 37.581C56.9322 37.5807 56.6815 37.4767 56.4966 37.2918C56.3117 37.1069 56.2077 36.8562 56.2074 36.5947C56.2074 35.9284 56.7697 35.0448 57.1938 35.0448C57.6179 35.0448 58.1802 35.9284 58.1802 36.5947C58.1798 36.8562 58.0758 37.1069 57.8909 37.2918C57.706 37.4767 57.4552 37.5807 57.1937 37.581Z" fill="white"></path><path d="M62.8297 33.6357C61.3899 33.6357 60.4344 35.4166 60.4344 36.5947C60.4344 37.2299 60.6868 37.8392 61.136 38.2884C61.5852 38.7376 62.1945 38.99 62.8297 38.99C63.465 38.99 64.0743 38.7376 64.5235 38.2884C64.9727 37.8392 65.2251 37.2299 65.2251 36.5947C65.2251 35.4167 64.2696 33.6357 62.8297 33.6357ZM62.8297 37.581C62.5682 37.5807 62.3175 37.4767 62.1326 37.2918C61.9477 37.1069 61.8437 36.8562 61.8434 36.5947C61.8434 35.9284 62.4057 35.0448 62.8298 35.0448C63.2539 35.0448 63.8162 35.9284 63.8162 36.5947C63.8159 36.8562 63.7118 37.1069 63.5269 37.2918C63.342 37.4768 63.0912 37.5808 62.8297 37.581Z" fill="white"></path><path d="M67.3385 37.0176C65.8988 37.0176 64.9433 38.7985 64.9433 39.9765C64.9433 40.6118 65.1956 41.221 65.6448 41.6703C66.094 42.1195 66.7033 42.3718 67.3386 42.3718C67.9739 42.3718 68.5831 42.1195 69.0323 41.6703C69.4815 41.221 69.7339 40.6118 69.7339 39.9765C69.7339 38.7985 68.7785 37.0176 67.3385 37.0176ZM67.3385 40.9628C67.077 40.9625 66.8264 40.8584 66.6415 40.6735C66.4566 40.4886 66.3526 40.2379 66.3523 39.9764C66.3523 39.3101 66.9145 38.4266 67.3386 38.4266C67.7627 38.4266 68.325 39.3101 68.325 39.9764C68.3247 40.2379 68.2207 40.4887 68.0357 40.6736C67.8508 40.8585 67.6001 40.9625 67.3385 40.9628Z" fill="white"></path><path d="M52.6849 37.0176C51.2452 37.0176 50.2897 38.7985 50.2897 39.9765C50.2897 40.6118 50.542 41.221 50.9912 41.6703C51.4405 42.1195 52.0497 42.3718 52.685 42.3718C53.3203 42.3718 53.9295 42.1195 54.3787 41.6703C54.8279 41.221 55.0803 40.6118 55.0803 39.9765C55.0803 38.7985 54.1249 37.0176 52.6849 37.0176ZM52.6849 40.9628C52.4234 40.9625 52.1728 40.8584 51.9879 40.6735C51.803 40.4886 51.699 40.2379 51.6987 39.9764C51.6987 39.3101 52.2609 38.4266 52.685 38.4266C53.1091 38.4266 53.6714 39.3101 53.6714 39.9764C53.6711 40.2379 53.5671 40.4887 53.3822 40.6736C53.1972 40.8585 52.9465 40.9625 52.6849 40.9628Z" fill="white"></path></g><defs><clipPath id="clip0_789_2"><rect width="43.8671" height="48" fill="white" transform="translate(30 28)"></rect></clipPath></defs></svg>