<svg xmlns="http://www.w3.org/2000/svg" width="104" height="104" viewBox="0 0 104 104" fill="none"><rect width="104" height="104" rx="52" fill="#FCB400"></rect><g clip-path="url(#clip0_792_119)"><path d="M75.3052 56.192C74.965 55.7233 74.5277 55.3334 74.0231 55.049C73.5185 54.7646 72.9586 54.5924 72.3814 54.5441C71.4581 54.4809 70.6218 54.7933 70.0266 55.4236C69.7796 55.685 69.4967 55.9938 69.1888 56.3359C68.8469 55.9051 68.4204 55.549 67.9356 55.2893C67.4507 55.0296 66.9179 54.8719 66.3699 54.8259C65.4468 54.7626 64.6103 55.0754 64.0153 55.7054C63.9122 55.8146 63.8019 55.9331 63.6865 56.0582C63.0073 55.346 62.0904 54.9076 61.1096 54.8259C60.1863 54.7626 59.35 55.0754 58.7547 55.7054C57.8859 56.6251 56.47 58.2365 54.5478 60.4927L49.3414 59.1798C48.6491 58.5558 45.6213 56.1083 40.7275 56.1083C32.229 56.1083 28.3251 60.6761 28.1632 60.8705C28.0539 61.004 27.9968 61.1726 28.0026 61.345C28.0084 61.5174 28.0767 61.6818 28.1947 61.8077C28.2638 61.8785 28.3469 61.9342 28.4387 61.9711C28.5306 62.008 28.6291 62.0253 28.728 62.022C28.8269 62.0187 28.9241 61.9947 29.0132 61.9517C29.1024 61.9087 29.1816 61.8476 29.2457 61.7723C29.2812 61.7297 32.8825 57.5171 40.7276 57.5171C45.5916 57.5171 48.4482 60.2702 48.4964 60.3174C48.5865 60.4064 48.6986 60.4698 48.8213 60.5012L58.2789 62.8866C58.8589 63.0722 59.3417 63.4802 59.6215 64.0212C59.9013 64.5621 59.9552 65.1919 59.7715 65.7725C59.5878 66.3532 59.1814 66.8373 58.6414 67.1189C58.1014 67.4005 57.4717 67.4565 56.8905 67.2747C56.8829 67.2723 56.8754 67.2701 56.8676 67.2681L49.1807 65.1511C49.1198 65.1345 49.0569 65.1259 48.9937 65.1257H42.9819C42.7951 65.1257 42.6159 65.1999 42.4838 65.332C42.3517 65.4641 42.2774 65.6433 42.2774 65.8301C42.2774 66.0169 42.3517 66.1961 42.4838 66.3282C42.6159 66.4603 42.7951 66.5346 42.9819 66.5346H48.8987L56.4828 68.6234C57.0244 68.7903 57.5969 68.8311 58.1566 68.7424C58.7163 68.6537 59.2482 68.438 59.7116 68.1118C60.175 67.7857 60.5575 67.3577 60.8298 66.8607C61.1021 66.3637 61.2569 65.811 61.2824 65.2449L63.3449 65.0279C63.5274 65.0087 63.6952 64.9191 63.8127 64.7781C63.8635 64.7171 68.919 58.6478 71.0511 56.391C71.9375 55.4528 73.5197 56.1175 74.1599 57.0119C75.144 58.3868 73.921 59.8876 73.5228 60.3153C71.5658 62.4151 67.977 66.7413 67.3319 67.5211L53.6721 74.3506C53.3752 74.4992 53.0497 74.5818 52.7179 74.5926C52.3861 74.6034 52.0559 74.5422 51.75 74.4132L38.7466 68.9381C38.66 68.9017 38.567 68.883 38.4731 68.883H28.7044C28.5176 68.883 28.3384 68.9572 28.2063 69.0893C28.0742 69.2214 28 69.4006 28 69.5875C28 69.7743 28.0742 69.9535 28.2063 70.0856C28.3384 70.2177 28.5176 70.2919 28.7044 70.2919H38.331L51.2033 75.7118C51.697 75.9179 52.2292 76.0155 52.7639 75.9981C53.2986 75.9807 53.8233 75.8485 54.3024 75.6107L68.0948 68.7145C68.1828 68.6705 68.2606 68.6086 68.3231 68.5327C68.3644 68.4827 72.4722 63.5085 74.5531 61.2756C76.085 59.6324 76.3733 57.6843 75.3052 56.192ZM58.8677 61.6002C58.7942 61.5714 58.7194 61.5466 58.6433 61.5258L56.0721 60.8773C57.7321 58.9366 59.0072 57.49 59.779 56.6732C60.1644 56.2652 60.6632 56.2087 61.014 56.2322C61.6796 56.2937 62.2967 56.6072 62.7388 57.1086C61.5438 58.4556 60.0774 60.1707 58.8677 61.6002ZM62.9128 63.6567L61.0752 63.8501C60.8725 63.2748 60.5318 62.7578 60.083 62.3446C61.7459 60.381 63.8426 57.939 65.0387 56.6729C65.4241 56.2649 65.9231 56.2084 66.2737 56.2319C66.6434 56.2662 67.0016 56.3786 67.3246 56.5617C67.6476 56.7448 67.928 56.9945 68.1472 57.2942C68.1761 57.3347 68.203 57.3758 68.2287 57.4175C66.1738 59.7596 63.6217 62.8078 62.9128 63.6567Z" fill="white"></path><path d="M51.9994 38.5244C50.4678 38.5261 48.9995 39.1353 47.9165 40.2183C46.8335 41.3013 46.2243 42.7696 46.2226 44.3012C46.2226 47.2126 48.3822 48.9507 51.9994 48.9507C55.6166 48.9507 57.7762 47.2125 57.7762 44.3012C57.7744 42.7696 57.1652 41.3013 56.0823 40.2183C54.9993 39.1353 53.531 38.5262 51.9994 38.5244ZM51.9994 47.5418C50.3682 47.5418 47.6316 47.1208 47.6316 44.3013C47.6316 43.1429 48.0918 42.0319 48.9109 41.2128C49.73 40.3937 50.841 39.9335 51.9994 39.9335C53.1578 39.9335 54.2688 40.3937 55.0879 41.2128C55.907 42.0319 56.3672 43.1429 56.3672 44.3013C56.3671 47.1208 53.6306 47.5418 51.9994 47.5418Z" fill="white"></path><path d="M49.1813 32.8887C47.7416 32.8887 46.7861 34.6696 46.7861 35.8475C46.7861 36.1621 46.8481 36.4735 46.9684 36.7641C47.0888 37.0548 47.2652 37.3188 47.4877 37.5412C47.7101 37.7636 47.9741 37.9401 48.2647 38.0604C48.5553 38.1808 48.8668 38.2428 49.1813 38.2428C49.4959 38.2428 49.8074 38.1808 50.098 38.0604C50.3886 37.9401 50.6526 37.7636 50.875 37.5412C51.0975 37.3188 51.2739 37.0548 51.3943 36.7641C51.5146 36.4735 51.5766 36.1621 51.5766 35.8475C51.5766 34.6696 50.6213 32.8887 49.1813 32.8887ZM49.1813 36.8338C48.9198 36.8335 48.6692 36.7295 48.4843 36.5446C48.2994 36.3597 48.1954 36.109 48.1951 35.8475C48.1951 35.1812 48.7573 34.2977 49.1814 34.2977C49.6055 34.2977 50.1677 35.1812 50.1677 35.8475C50.1674 36.109 50.0634 36.3597 49.8784 36.5446C49.6935 36.7296 49.4428 36.8335 49.1813 36.8338Z" fill="white"></path><path d="M54.8171 32.8887C53.3774 32.8887 52.4219 34.6696 52.4219 35.8475C52.4219 36.1621 52.4839 36.4735 52.6043 36.7641C52.7246 37.0548 52.9011 37.3188 53.1235 37.5412C53.3459 37.7636 53.61 37.9401 53.9006 38.0604C54.1912 38.1808 54.5026 38.2428 54.8172 38.2428C55.1317 38.2428 55.4432 38.1808 55.7338 38.0604C56.0244 37.9401 56.2885 37.7636 56.5109 37.5412C56.7333 37.3188 56.9097 37.0548 57.0301 36.7641C57.1505 36.4735 57.2124 36.1621 57.2124 35.8475C57.2124 34.6696 56.2571 32.8887 54.8171 32.8887ZM54.8171 36.8338C54.5557 36.8335 54.305 36.7295 54.1201 36.5446C53.9352 36.3597 53.8312 36.109 53.8309 35.8475C53.8309 35.1812 54.3931 34.2977 54.8172 34.2977C55.2413 34.2977 55.8035 35.1812 55.8035 35.8475C55.8033 36.109 55.6993 36.3598 55.5143 36.5447C55.3294 36.7296 55.0787 36.8336 54.8171 36.8338Z" fill="white"></path><path d="M59.3259 36.2695C57.8862 36.2695 56.9307 38.0505 56.9307 39.2284C56.9307 39.8636 57.1831 40.4729 57.6323 40.9221C58.0815 41.3713 58.6907 41.6236 59.326 41.6236C59.9612 41.6236 60.5705 41.3713 61.0197 40.9221C61.4689 40.4729 61.7212 39.8636 61.7212 39.2284C61.7212 38.0505 60.7658 36.2695 59.3259 36.2695ZM59.3259 40.2147C59.0645 40.2144 58.8138 40.1103 58.6289 39.9254C58.444 39.7405 58.34 39.4899 58.3397 39.2284C58.3397 38.562 58.902 37.6785 59.326 37.6785C59.75 37.6785 60.3123 38.562 60.3123 39.2284C60.312 39.4899 60.208 39.7406 60.0231 39.9255C59.8382 40.1104 59.5874 40.2144 59.3259 40.2147Z" fill="white"></path><path d="M44.6727 36.2695C43.233 36.2695 42.2775 38.0505 42.2775 39.2284C42.2775 39.8636 42.5298 40.4729 42.979 40.9221C43.4282 41.3713 44.0375 41.6236 44.6727 41.6236C45.308 41.6236 45.9172 41.3713 46.3664 40.9221C46.8156 40.4729 47.068 39.8636 47.068 39.2284C47.068 38.0505 46.1126 36.2695 44.6727 36.2695ZM44.6727 40.2147C44.4112 40.2144 44.1605 40.1103 43.9757 39.9254C43.7908 39.7405 43.6868 39.4899 43.6865 39.2284C43.6865 38.562 44.2487 37.6785 44.6728 37.6785C45.0969 37.6785 45.6591 38.562 45.6591 39.2284C45.6588 39.4899 45.5547 39.7406 45.3698 39.9255C45.1849 40.1104 44.9342 40.2144 44.6727 40.2147Z" fill="white"></path><path d="M53.5022 43.0331H52.7038V42.2347C52.7038 42.1422 52.6856 42.0506 52.6502 41.9651C52.6148 41.8797 52.5629 41.802 52.4975 41.7366C52.4321 41.6712 52.3544 41.6193 52.2689 41.5839C52.1835 41.5485 52.0919 41.5303 51.9994 41.5303C51.9068 41.5303 51.8152 41.5485 51.7298 41.5839C51.6443 41.6193 51.5666 41.6712 51.5012 41.7366C51.4358 41.802 51.3839 41.8797 51.3485 41.9651C51.3131 42.0506 51.2949 42.1422 51.2949 42.2347V43.0331H50.4965C50.3097 43.0331 50.1305 43.1073 49.9984 43.2395C49.8663 43.3716 49.792 43.5508 49.792 43.7376C49.792 43.9244 49.8663 44.1036 49.9984 44.2357C50.1305 44.3678 50.3097 44.442 50.4965 44.442H51.2949V45.2404C51.2949 45.4273 51.3691 45.6065 51.5012 45.7386C51.6333 45.8707 51.8125 45.9449 51.9994 45.9449C52.1862 45.9449 52.3654 45.8707 52.4975 45.7386C52.6296 45.6065 52.7038 45.4273 52.7038 45.2404V44.442H53.5022C53.5947 44.442 53.6863 44.4238 53.7718 44.3884C53.8573 44.353 53.9349 44.3011 54.0003 44.2357C54.0657 44.1703 54.1176 44.0926 54.153 44.0072C54.1884 43.9217 54.2067 43.8301 54.2067 43.7376C54.2067 43.6451 54.1884 43.5535 54.153 43.468C54.1176 43.3825 54.0657 43.3049 54.0003 43.2395C53.9349 43.174 53.8573 43.1222 53.7718 43.0868C53.6863 43.0514 53.5947 43.0331 53.5022 43.0331Z" fill="white"></path><path d="M64.7275 30.3C63.273 28.8254 59.153 25.9276 51.9993 30.3637C44.8462 25.9276 40.7258 28.8255 39.2711 30.3C36.2964 33.3156 35.7699 38.6095 38.0974 42.1008C43.7219 50.5371 51.3011 55.4165 51.6208 55.62C51.7341 55.6913 51.8652 55.7291 51.999 55.7291C52.1328 55.7291 52.2639 55.6913 52.3772 55.62C52.6972 55.4165 60.2766 50.5375 65.9013 42.1007C68.2287 38.6095 67.7023 33.3157 64.7275 30.3ZM64.7287 41.3192C59.974 48.4515 53.6026 53.0782 51.999 54.178C50.3954 53.0793 44.0307 48.4607 39.2697 41.3191C37.2931 38.3544 37.7437 33.855 40.2741 31.2891C41.5034 30.0428 43.0672 29.4222 44.8562 29.4222C46.8756 29.4222 49.182 30.2135 51.6165 31.7887C51.7305 31.8624 51.8634 31.9017 51.9992 31.9017C52.135 31.9017 52.2679 31.8624 52.3819 31.7887C56.9731 28.8183 61.1073 28.6362 63.7244 31.2891C66.2549 33.855 66.7055 38.3544 64.7287 41.3191V41.3192Z" fill="white"></path></g><defs><clipPath id="clip0_792_119"><rect width="47.9431" height="48" fill="white" transform="translate(28 28)"></rect></clipPath></defs></svg>