<svg xmlns="http://www.w3.org/2000/svg" width="104" height="104" viewBox="0 0 104 104" fill="none"><rect width="104" height="104" rx="52" fill="#03A9F4"></rect><g clip-path="url(#clip0_793_338)"><path d="M39.0119 64.3343C38.9459 64.2519 38.8622 64.1854 38.767 64.1397C38.6718 64.094 38.5676 64.0703 38.462 64.0703C38.3565 64.0703 38.2523 64.094 38.1571 64.1397C38.0619 64.1854 37.9782 64.2519 37.9122 64.3343C37.5117 64.834 34 69.2808 34 71.5383C34 72.1243 34.1154 72.7045 34.3396 73.2458C34.5639 73.7872 34.8925 74.279 35.3069 74.6934C35.7212 75.1077 36.2131 75.4364 36.7544 75.6606C37.2958 75.8848 37.876 76.0003 38.462 76.0003C39.0479 76.0003 39.6281 75.8848 40.1695 75.6606C40.7108 75.4364 41.2027 75.1077 41.617 74.6934C42.0314 74.279 42.36 73.7872 42.5843 73.2458C42.8085 72.7045 42.9239 72.1243 42.9239 71.5383C42.9241 69.2808 39.4122 64.8339 39.0119 64.3343ZM38.462 74.5912C37.6526 74.5903 36.8765 74.2684 36.3042 73.696C35.7318 73.1237 35.4099 72.3476 35.409 71.5382C35.409 70.373 37.1051 67.7311 38.4621 65.9246C39.819 67.73 41.515 70.3714 41.515 71.5382C41.5141 72.3476 41.1922 73.1237 40.6198 73.696C40.0475 74.2684 39.2714 74.5903 38.462 74.5912Z" fill="white"></path><path d="M66.2478 36.271L69.4693 33.0495C70.0225 32.4942 70.3328 31.7421 70.3321 30.9583C70.3314 30.1745 70.0197 29.4229 69.4655 28.8687C68.9112 28.3144 68.1597 28.0027 67.3759 28.002C66.592 28.0012 65.8399 28.3115 65.2846 28.8648L62.0631 32.0862L58.8415 28.8649C58.7761 28.7994 58.6984 28.7475 58.613 28.7121C58.5275 28.6767 58.4359 28.6585 58.3433 28.6585C58.2508 28.6585 58.1592 28.6767 58.0737 28.7121C57.9882 28.7475 57.9106 28.7994 57.8451 28.8649L55.1883 31.5217C55.0579 31.6547 54.9849 31.8336 54.9849 32.0199C54.9849 32.2061 55.0579 32.385 55.1883 32.518L57.8785 35.2083L54.342 38.7448C54.2765 38.8103 54.2246 38.8879 54.1892 38.9734C54.1538 39.0589 54.1356 39.1505 54.1356 39.243C54.1356 39.3355 54.1538 39.4271 54.1892 39.5126C54.2246 39.5981 54.2765 39.6758 54.3419 39.7412C54.474 39.8733 54.6532 39.9475 54.8401 39.9475C54.9326 39.9476 55.0242 39.9293 55.1097 39.8939C55.1952 39.8585 55.2728 39.8066 55.3382 39.7412L58.8747 36.2047L62.1296 39.4594L53.3474 48.2416H46.8379L52.751 42.3284C52.8165 42.263 52.8684 42.1853 52.9038 42.0999C52.9392 42.0144 52.9574 41.9228 52.9574 41.8302C52.9574 41.7377 52.9391 41.6461 52.9037 41.5606C52.8683 41.4752 52.8164 41.3975 52.751 41.3321C52.6856 41.2667 52.6079 41.2148 52.5224 41.1794C52.437 41.144 52.3453 41.1258 52.2528 41.1258C52.1603 41.1258 52.0687 41.144 51.9832 41.1794C51.8977 41.2148 51.8201 41.2667 51.7547 41.3321L41.3723 51.7144C41.3188 51.7679 41.2743 51.8298 41.2404 51.8975L39.1663 56.0463L37.6528 57.5596C37.2388 57.9736 37.0062 58.5351 37.0062 59.1206C37.0062 59.7061 37.2388 60.2676 37.6528 60.6816C38.0668 61.0955 38.6282 61.3281 39.2137 61.3281C39.7992 61.3281 40.3607 61.0955 40.7747 60.6816L42.2879 59.1683L46.4368 57.0938C46.5045 57.06 46.5663 57.0154 46.6199 56.9618L63.1259 40.4557L65.816 43.1458C65.949 43.2763 66.1279 43.3494 66.3142 43.3494C66.5005 43.3494 66.6794 43.2763 66.8124 43.1458L69.4693 40.489C69.5996 40.356 69.6727 40.1771 69.6727 39.9908C69.6727 39.8046 69.5996 39.6257 69.4693 39.4927L66.2478 36.271ZM45.7042 55.8846L41.5551 57.959C41.4873 57.9929 41.4255 58.0375 41.372 58.091L39.778 59.6853C39.7039 59.7594 39.6158 59.8182 39.519 59.8583C39.4221 59.8984 39.3183 59.9191 39.2134 59.9191C39.0017 59.9191 38.7986 59.8349 38.6489 59.6852C38.4992 59.5354 38.415 59.3323 38.4151 59.1206C38.4151 58.9088 38.4992 58.7057 38.649 58.556L40.2432 56.9618C40.2967 56.9083 40.3413 56.8464 40.3751 56.7787L42.4496 52.6299L45.429 49.6505H51.9384L45.7042 55.8846ZM66.2809 29.8612C66.4248 29.7172 66.5957 29.6031 66.7838 29.5252C66.9718 29.4473 67.1734 29.4072 67.3769 29.4072C67.5805 29.4072 67.782 29.4472 67.9701 29.5251C68.1581 29.603 68.329 29.7172 68.4729 29.8611C68.6169 30.005 68.731 30.1759 68.8089 30.364C68.8868 30.552 68.9269 30.7536 68.9269 30.9571C68.9269 31.1607 68.8868 31.3622 68.809 31.5503C68.7311 31.7383 68.6169 31.9092 68.473 32.0531L65.2515 35.2746L63.0595 33.0828L66.2809 29.8612ZM66.3141 41.6513L56.6828 32.02L58.3434 30.3594L67.9748 39.9908L66.3141 41.6513Z" fill="white"></path></g><defs><clipPath id="clip0_793_338"><rect width="36.3344" height="48" fill="white" transform="translate(34 28)"></rect></clipPath></defs></svg>