<svg xmlns="http://www.w3.org/2000/svg" width="104" height="104" viewBox="0 0 104 104" fill="none"><rect width="104" height="104" rx="52" fill="#F50057"></rect><g clip-path="url(#clip0_790_20)"><path d="M38.3471 65.3671C37.9926 64.5851 37.3779 63.9503 36.6078 63.5708C35.8377 63.1912 34.9599 63.0905 34.1238 63.2856C33.2877 63.4808 32.5452 63.9598 32.0228 64.6411C31.5003 65.3224 31.2302 66.1637 31.2586 67.0218C31.2869 67.8798 31.6119 68.7015 32.1781 69.3469C32.7444 69.9922 33.5169 70.4212 34.364 70.5608C35.2111 70.7004 36.0804 70.5419 36.8238 70.1124C37.5672 69.6829 38.1386 69.0089 38.4408 68.2053C38.6136 67.7495 38.6943 67.264 38.6782 66.7768C38.6621 66.2896 38.5496 65.8105 38.3471 65.3671ZM37.1219 67.7091C36.9345 68.2075 36.5801 68.6254 36.1191 68.8918C35.6581 69.1581 35.119 69.2564 34.5937 69.1698C34.0683 69.0832 33.5893 68.8171 33.2381 68.4169C32.887 68.0167 32.6854 67.5071 32.6679 66.975C32.6503 66.4429 32.8178 65.9211 33.1418 65.4986C33.4659 65.0762 33.9263 64.7791 34.4448 64.6581C34.9633 64.5371 35.5077 64.5996 35.9853 64.8349C36.4628 65.0703 36.844 65.464 37.0639 65.9489C37.1895 66.2239 37.2593 66.5211 37.2692 66.8232C37.2792 67.1254 37.2291 67.4265 37.1219 67.7091Z" fill="white"></path><path d="M56.5939 64.8009C56.2478 63.8814 55.68 63.0615 54.9408 62.4141C54.2017 61.7668 53.3141 61.312 52.357 61.0901C51.3998 60.8682 50.4027 60.8861 49.4541 61.1423C48.5055 61.3984 47.6349 61.8848 46.9195 62.5583L45.8059 59.5964C46.3383 58.1708 46.8794 56.6689 47.4515 55.0805C48.1399 53.1695 48.8517 51.1942 49.6277 49.1301C52.8233 40.6316 52.0068 32.36 51.9705 32.012C51.9539 31.8542 51.8846 31.7066 51.7737 31.5931C51.6628 31.4796 51.5168 31.4069 51.3594 31.3867C51.202 31.3665 51.0424 31.4 50.9065 31.4818C50.7705 31.5636 50.6662 31.6889 50.6103 31.8375L42.9892 52.1058L35.3684 31.8374C35.3125 31.6888 35.2082 31.5635 35.0722 31.4817C34.9362 31.3999 34.7766 31.3664 34.6192 31.3866C34.4619 31.4068 34.3159 31.4795 34.205 31.593C34.0941 31.7065 34.0248 31.8541 34.0082 32.0119C33.9719 32.3599 33.1556 40.6313 36.351 49.1299C37.1272 51.194 37.8394 53.1704 38.5274 55.0816C39.099 56.6682 39.6426 58.177 40.1725 59.5971L39.0592 62.5582C38.4167 61.9527 37.6477 61.4973 36.8079 61.2251C35.968 60.9528 35.0782 60.8703 34.2026 60.9836C33.327 61.0969 32.4875 61.4032 31.7446 61.8803C31.0017 62.3574 30.374 62.9935 29.9067 63.7426C29.4395 64.4917 29.1444 65.3352 29.0426 66.2122C28.9409 67.0892 29.0351 67.9779 29.3185 68.8141C29.6018 69.6502 30.0673 70.4131 30.6812 71.0476C31.2951 71.6821 32.0423 72.1724 32.8687 72.4831C33.6916 72.8074 34.5666 72.9799 35.4511 72.992C38.967 72.9916 41.2398 69.8732 42.9876 66.342C44.5015 69.3939 46.1113 71.532 48.1534 72.4751C48.8935 72.8209 49.7008 72.9993 50.5178 72.9978C51.4058 72.9841 52.2841 72.8098 53.11 72.4833C54.5896 71.925 55.7872 70.8026 56.4404 69.3624C57.0935 67.9222 57.1487 66.2818 56.5939 64.8009ZM43.7919 53.9745L50.6628 35.7014C50.5975 38.8702 50.1436 43.7548 48.3088 48.6343C47.5294 50.7072 46.8159 52.6877 46.126 54.6031C45.7557 55.6313 45.3964 56.624 45.0482 57.581L43.7356 54.0898C43.7578 54.0531 43.7766 54.0146 43.7919 53.9745ZM33.3641 71.1644C32.6945 70.9129 32.0936 70.5073 31.61 69.9804C31.1263 69.4536 30.7735 68.8203 30.58 68.1317C30.3866 67.4432 30.358 66.7188 30.4965 66.0171C30.635 65.3155 30.9368 64.6563 31.3774 64.0929C31.818 63.5295 32.385 63.0778 33.0326 62.7743C33.6802 62.4708 34.3902 62.324 35.105 62.3458C35.8199 62.3676 36.5196 62.5574 37.1474 62.8999C37.7753 63.2424 38.3138 63.7278 38.7192 64.317C38.7934 64.4212 38.8943 64.5035 39.0114 64.5551C39.1284 64.6068 39.2572 64.6259 39.3842 64.6104C39.5112 64.595 39.6317 64.5455 39.7329 64.4673C39.8342 64.3891 39.9125 64.285 39.9595 64.1661L40.9297 61.5857C41.3598 62.6873 41.7851 63.7246 42.2137 64.6897C39.4462 70.6978 36.9552 72.5143 33.3646 71.1645L33.3641 71.1644ZM52.6135 71.1644C51.1527 71.7137 49.8866 71.724 48.7437 71.1961C45.2477 69.5813 42.867 62.9721 39.8526 54.6041C39.1626 52.6883 38.449 50.7075 37.6695 48.634C35.8382 43.763 35.3838 38.8771 35.3176 35.7058L46.0189 64.1663C46.066 64.2853 46.1442 64.3893 46.2455 64.4675C46.3467 64.5457 46.4672 64.5952 46.5942 64.6106C46.7212 64.6261 46.85 64.607 46.967 64.5554C47.0841 64.5037 47.185 64.4215 47.2592 64.3173C47.6647 63.7283 48.2031 63.2431 48.8309 62.9008C49.4587 62.5586 50.1583 62.3689 50.873 62.3472C51.5877 62.3255 52.2975 62.4723 52.9449 62.7758C53.5924 63.0793 54.1593 63.5309 54.5998 64.0942C55.0403 64.6574 55.342 65.3164 55.4805 66.0179C55.6191 66.7194 55.5905 67.4437 55.3972 68.1321C55.2039 68.8205 54.8513 69.4537 54.3678 69.9806C53.8843 70.5074 53.2837 70.913 52.6143 71.1646L52.6135 71.1644Z" fill="white"></path><path d="M54.4838 65.594C54.1334 64.6785 53.4349 63.9388 52.541 63.5366C51.647 63.1344 50.6302 63.1024 49.7127 63.4474C48.7951 63.7924 48.0514 64.4866 47.6439 65.3782C47.2365 66.2697 47.1984 67.2863 47.5381 68.2059C47.8885 69.1214 48.587 69.861 49.481 70.2632C50.3749 70.6654 51.3917 70.6975 52.3093 70.3525C53.2268 70.0075 53.9705 69.3133 54.378 68.4217C54.7854 67.5301 54.8235 66.5135 54.4838 65.594ZM51.8206 69.0541C51.3945 69.2143 50.9305 69.2445 50.4872 69.141C50.044 69.0375 49.6414 68.8049 49.3303 68.4725C49.0193 68.1402 48.8138 67.7231 48.7398 67.2739C48.6658 66.8248 48.7266 66.3638 48.9146 65.9493C49.1027 65.5347 49.4094 65.1852 49.796 64.945C50.1826 64.7048 50.6318 64.5846 51.0868 64.5996C51.5417 64.6147 51.982 64.7643 52.3519 65.0296C52.7218 65.2949 53.0047 65.6639 53.1649 66.0899C53.2733 66.3726 53.3245 66.6741 53.3154 66.9767C53.3064 67.2794 53.2374 67.5772 53.1123 67.853C52.9872 68.1288 52.8086 68.3769 52.5869 68.5831C52.3652 68.7893 52.1047 68.9494 51.8206 69.0541Z" fill="white"></path><path d="M42.9424 59.8807C43.0817 59.8807 43.2179 59.8394 43.3338 59.762C43.4497 59.6845 43.54 59.5745 43.5933 59.4458C43.6466 59.3171 43.6606 59.1754 43.6334 59.0388C43.6062 58.9021 43.5391 58.7766 43.4406 58.6781C43.3421 58.5795 43.2166 58.5124 43.0799 58.4852C42.9433 58.458 42.8016 58.472 42.6729 58.5253C42.5441 58.5786 42.4341 58.6689 42.3567 58.7847C42.2793 58.9006 42.2379 59.0368 42.2379 59.1761C42.2379 59.2686 42.2561 59.3602 42.2915 59.4457C42.3269 59.5312 42.3788 59.6089 42.4442 59.6743C42.5096 59.7397 42.5873 59.7916 42.6728 59.827C42.7583 59.8624 42.8499 59.8807 42.9424 59.8807Z" fill="white"></path><path d="M70.2129 53.4832C72.0164 51.0561 74.2608 48.0356 74.2608 42.2308C74.2608 39.7685 73.8278 37.343 73.0084 35.2171C72.9394 35.0454 72.8055 34.9077 72.6358 34.8339C72.466 34.76 72.274 34.756 72.1013 34.8226C71.9286 34.8892 71.789 35.021 71.7128 35.1897C71.6365 35.3584 71.6297 35.5503 71.6938 35.7239C72.4514 37.6896 72.8519 39.9397 72.8519 42.2308C72.8519 47.5693 70.7616 50.3825 69.0819 52.6428C67.9483 54.1685 66.9688 55.4861 66.8068 57.1935C66.8032 57.2319 66.8003 57.269 66.7968 57.3071H62.2807C62.2772 57.269 62.2744 57.2318 62.2707 57.1935C62.1083 55.4861 61.1292 54.1684 59.9956 52.6428C58.3159 50.3825 56.2256 47.5694 56.2256 42.2309C56.2256 38.7553 57.1216 35.4974 58.7485 33.0571C60.3169 30.7051 62.3732 29.4092 64.5387 29.4092C66.596 29.4092 68.5762 30.5944 70.1146 32.7469C70.2233 32.8989 70.3878 33.0015 70.5722 33.0322C70.7565 33.0629 70.9454 33.019 71.0974 32.9104C71.2494 32.8017 71.3521 32.6372 71.3827 32.4528C71.4134 32.2685 71.3696 32.0796 71.2609 31.9276C69.4506 29.3948 67.0633 28 64.5385 28C61.8867 28 59.414 29.5185 57.576 32.2756C55.7964 34.9448 54.8164 38.4803 54.8164 42.2309C54.8164 48.0356 57.061 51.0562 58.8643 53.4833C59.9138 54.8955 60.7423 56.011 60.8678 57.327C60.9094 57.7632 60.9661 58.2107 60.9661 58.6493C61.0398 59.9149 61.0115 61.1843 60.8815 62.4453C60.8811 62.4495 60.8815 62.4539 60.8809 62.4581C60.7013 64.1193 60.3555 65.4165 60.0326 66.6254C59.6688 67.9879 59.3252 69.2748 59.3252 70.7867C59.3252 72.4054 59.8604 73.7543 60.873 74.6866C61.806 75.5459 63.0736 76.0004 64.5388 76.0004C66.004 76.0004 67.2713 75.5462 68.2046 74.6866C69.2171 73.754 69.7524 72.4054 69.7524 70.7867C69.7524 69.2748 69.4088 67.988 69.045 66.6254C68.7222 65.4166 68.3764 64.1192 68.1967 62.4581C68.1967 62.4539 68.1967 62.4495 68.1961 62.4453C68.0662 61.1843 68.0379 59.9149 68.1115 58.6493C68.135 58.2083 68.1677 57.7676 68.2098 57.3271C68.3345 56.011 69.1634 54.8955 70.2129 53.4832ZM62.4022 59.3051C62.3955 59.1088 62.3898 58.9125 62.3804 58.7163H66.6968C66.6876 58.9126 66.6812 59.1091 66.6749 59.3055C66.6495 60.1427 66.6662 60.9806 66.7249 61.8161H62.3524C62.4109 60.9804 62.4275 60.1424 62.4022 59.3051ZM68.3428 70.7866C68.3428 73.1689 66.9206 74.5909 64.5386 74.5909C62.1567 74.5909 60.7344 73.1687 60.7344 70.7866C60.7344 69.4596 61.0401 68.3147 61.3941 66.9888C61.6804 65.9165 62.0005 64.7168 62.2038 63.2251H66.8735C67.0771 64.7169 67.3972 65.9165 67.6832 66.9888C68.0372 68.3148 68.3429 69.4597 68.3429 70.7866H68.3428Z" fill="white"></path><path d="M69.4013 34.442C68.135 32.2263 66.4081 31.0059 64.5384 31.0059C62.6686 31.0059 60.9422 32.2263 59.676 34.442C58.4805 36.5341 57.8223 39.3002 57.8223 42.231C57.8223 45.1618 58.4806 47.9279 59.676 50.0196C60.9423 52.2355 62.6692 53.4557 64.5386 53.4557C66.4081 53.4557 68.135 52.2353 69.4013 50.0196C70.5967 47.9278 71.255 45.1618 71.255 42.231C71.255 39.3002 70.5966 36.5341 69.4013 34.442ZM64.5384 52.047C61.6616 52.047 59.2311 47.5517 59.2311 42.2309C59.2311 36.91 61.6618 32.4149 64.5384 32.4149C67.415 32.4149 69.8456 36.9102 69.8456 42.231C69.8456 47.5517 67.4153 52.047 64.5384 52.047Z" fill="white"></path><path d="M63.0357 36.8768C63.1751 36.8768 63.3113 36.8355 63.4271 36.758C63.543 36.6806 63.6333 36.5706 63.6866 36.4419C63.7399 36.3132 63.7539 36.1715 63.7267 36.0349C63.6995 35.8982 63.6324 35.7727 63.5339 35.6741C63.4354 35.5756 63.3099 35.5085 63.1732 35.4813C63.0366 35.4541 62.8949 35.4681 62.7662 35.5214C62.6375 35.5747 62.5274 35.665 62.45 35.7808C62.3726 35.8966 62.3313 36.0328 62.3312 36.1722C62.3312 36.2647 62.3494 36.3563 62.3848 36.4418C62.4202 36.5273 62.4721 36.605 62.5375 36.6704C62.603 36.7358 62.6806 36.7877 62.7661 36.8231C62.8516 36.8585 62.9432 36.8768 63.0357 36.8768Z" fill="white"></path><path d="M66.0886 36.8768C66.2279 36.8768 66.3641 36.8355 66.4799 36.758C66.5958 36.6806 66.6861 36.5706 66.7394 36.4419C66.7927 36.3132 66.8067 36.1715 66.7795 36.0349C66.7524 35.8982 66.6853 35.7727 66.5867 35.6741C66.4882 35.5756 66.3627 35.5085 66.2261 35.4813C66.0894 35.4541 65.9478 35.4681 65.819 35.5214C65.6903 35.5747 65.5803 35.665 65.5028 35.7808C65.4254 35.8966 65.3841 36.0328 65.3841 36.1722C65.3841 36.2647 65.4023 36.3563 65.4377 36.4418C65.4731 36.5273 65.525 36.605 65.5904 36.6704C65.6558 36.7358 65.7335 36.7877 65.8189 36.8231C65.9044 36.8585 65.996 36.8768 66.0886 36.8768Z" fill="white"></path><path d="M63.0357 48.8533C63.1751 48.8533 63.3113 48.812 63.4271 48.7346C63.543 48.6572 63.6333 48.5472 63.6866 48.4185C63.7399 48.2897 63.7539 48.1481 63.7267 48.0114C63.6995 47.8748 63.6324 47.7492 63.5339 47.6507C63.4354 47.5522 63.3099 47.4851 63.1732 47.4579C63.0366 47.4307 62.8949 47.4446 62.7662 47.4979C62.6375 47.5512 62.5274 47.6415 62.45 47.7574C62.3726 47.8732 62.3313 48.0094 62.3312 48.1487C62.3312 48.2413 62.3494 48.3329 62.3848 48.4184C62.4202 48.5039 62.4721 48.5815 62.5375 48.647C62.603 48.7124 62.6806 48.7643 62.7661 48.7997C62.8516 48.8351 62.9432 48.8533 63.0357 48.8533Z" fill="white"></path><path d="M66.0886 48.8533C66.2279 48.8533 66.3641 48.812 66.4799 48.7346C66.5958 48.6572 66.6861 48.5472 66.7394 48.4185C66.7927 48.2897 66.8067 48.1481 66.7795 48.0114C66.7524 47.8748 66.6853 47.7492 66.5867 47.6507C66.4882 47.5522 66.3627 47.4851 66.2261 47.4579C66.0894 47.4307 65.9478 47.4446 65.819 47.4979C65.6903 47.5512 65.5803 47.6415 65.5028 47.7574C65.4254 47.8732 65.3841 48.0094 65.3841 48.1487C65.3841 48.2413 65.4023 48.3329 65.4377 48.4184C65.4731 48.5039 65.525 48.5815 65.5904 48.647C65.6558 48.7124 65.7335 48.7643 65.8189 48.7997C65.9044 48.8351 65.996 48.8533 66.0886 48.8533Z" fill="white"></path><path d="M68.2491 39.8358C68.3884 39.8358 68.5246 39.7944 68.6405 39.717C68.7563 39.6396 68.8466 39.5296 68.8999 39.4009C68.9533 39.2722 68.9672 39.1305 68.9401 38.9938C68.9129 38.8572 68.8458 38.7317 68.7473 38.6331C68.6488 38.5346 68.5232 38.4675 68.3866 38.4403C68.2499 38.4131 68.1083 38.4271 67.9795 38.4804C67.8508 38.5337 67.7408 38.6239 67.6634 38.7398C67.5859 38.8556 67.5446 38.9918 67.5446 39.1312C67.5446 39.2237 67.5628 39.3153 67.5982 39.4008C67.6336 39.4863 67.6855 39.5639 67.7509 39.6294C67.8163 39.6948 67.894 39.7467 67.9795 39.7821C68.0649 39.8175 68.1566 39.8358 68.2491 39.8358Z" fill="white"></path><path d="M64.4917 39.8358C64.631 39.8358 64.7672 39.7944 64.8831 39.717C64.9989 39.6396 65.0892 39.5296 65.1425 39.4009C65.1959 39.2722 65.2098 39.1305 65.1826 38.9938C65.1555 38.8572 65.0884 38.7317 64.9899 38.6331C64.8913 38.5346 64.7658 38.4675 64.6292 38.4403C64.4925 38.4131 64.3509 38.4271 64.2221 38.4804C64.0934 38.5337 63.9834 38.6239 63.9059 38.7398C63.8285 38.8556 63.7872 38.9918 63.7872 39.1312C63.7872 39.2237 63.8054 39.3153 63.8408 39.4008C63.8762 39.4863 63.9281 39.5639 63.9935 39.6294C64.0589 39.6948 64.1366 39.7467 64.222 39.7821C64.3075 39.8175 64.3991 39.8358 64.4917 39.8358Z" fill="white"></path><path d="M60.7343 39.8358C60.8737 39.8358 61.0099 39.7944 61.1257 39.717C61.2416 39.6396 61.3319 39.5296 61.3852 39.4009C61.4385 39.2722 61.4525 39.1305 61.4253 38.9938C61.3981 38.8572 61.331 38.7317 61.2325 38.6331C61.134 38.5346 61.0085 38.4675 60.8718 38.4403C60.7352 38.4131 60.5935 38.4271 60.4648 38.4804C60.3361 38.5337 60.226 38.6239 60.1486 38.7398C60.0712 38.8556 60.0299 38.9918 60.0298 39.1312C60.0298 39.2237 60.048 39.3153 60.0834 39.4008C60.1188 39.4863 60.1707 39.5639 60.2362 39.6294C60.3016 39.6948 60.3792 39.7467 60.4647 39.7821C60.5502 39.8175 60.6418 39.8358 60.7343 39.8358Z" fill="white"></path><path d="M68.2491 42.9354C68.3884 42.9354 68.5246 42.894 68.6405 42.8166C68.7563 42.7392 68.8466 42.6292 68.8999 42.5005C68.9533 42.3718 68.9672 42.2301 68.9401 42.0935C68.9129 41.9568 68.8458 41.8313 68.7473 41.7327C68.6488 41.6342 68.5232 41.5671 68.3866 41.5399C68.2499 41.5127 68.1083 41.5267 67.9795 41.58C67.8508 41.6333 67.7408 41.7236 67.6634 41.8394C67.5859 41.9552 67.5446 42.0914 67.5446 42.2308C67.5446 42.3233 67.5628 42.4149 67.5982 42.5004C67.6336 42.5859 67.6855 42.6636 67.7509 42.729C67.8163 42.7944 67.894 42.8463 67.9795 42.8817C68.0649 42.9171 68.1566 42.9354 68.2491 42.9354Z" fill="white"></path><path d="M64.4917 42.9354C64.631 42.9354 64.7672 42.894 64.8831 42.8166C64.9989 42.7392 65.0892 42.6292 65.1425 42.5005C65.1959 42.3718 65.2098 42.2301 65.1826 42.0935C65.1555 41.9568 65.0884 41.8313 64.9899 41.7327C64.8913 41.6342 64.7658 41.5671 64.6292 41.5399C64.4925 41.5127 64.3509 41.5267 64.2221 41.58C64.0934 41.6333 63.9834 41.7236 63.9059 41.8394C63.8285 41.9552 63.7872 42.0914 63.7872 42.2308C63.7872 42.3233 63.8054 42.4149 63.8408 42.5004C63.8762 42.5859 63.9281 42.6636 63.9935 42.729C64.0589 42.7944 64.1366 42.8463 64.222 42.8817C64.3075 42.9171 64.3991 42.9354 64.4917 42.9354Z" fill="white"></path><path d="M60.7343 42.9354C60.8737 42.9354 61.0099 42.894 61.1257 42.8166C61.2416 42.7392 61.3319 42.6292 61.3852 42.5005C61.4385 42.3718 61.4525 42.2301 61.4253 42.0935C61.3981 41.9568 61.331 41.8313 61.2325 41.7327C61.134 41.6342 61.0085 41.5671 60.8718 41.5399C60.7352 41.5127 60.5935 41.5267 60.4648 41.58C60.3361 41.6333 60.226 41.7236 60.1486 41.8394C60.0712 41.9552 60.0299 42.0914 60.0298 42.2308C60.0298 42.3233 60.048 42.4149 60.0834 42.5004C60.1188 42.5859 60.1707 42.6636 60.2362 42.729C60.3016 42.7944 60.3792 42.8463 60.4647 42.8817C60.5502 42.9171 60.6418 42.9354 60.7343 42.9354Z" fill="white"></path><path d="M68.2491 45.8475C68.3884 45.8475 68.5246 45.8062 68.6405 45.7287C68.7563 45.6513 68.8466 45.5413 68.8999 45.4126C68.9533 45.2839 68.9672 45.1422 68.9401 45.0056C68.9129 44.8689 68.8458 44.7434 68.7473 44.6449C68.6488 44.5463 68.5232 44.4792 68.3866 44.452C68.2499 44.4248 68.1083 44.4388 67.9795 44.4921C67.8508 44.5454 67.7408 44.6357 67.6634 44.7515C67.5859 44.8674 67.5446 45.0035 67.5446 45.1429C67.5446 45.2354 67.5628 45.327 67.5982 45.4125C67.6336 45.498 67.6855 45.5757 67.7509 45.6411C67.8163 45.7065 67.894 45.7584 67.9795 45.7938C68.0649 45.8292 68.1566 45.8475 68.2491 45.8475Z" fill="white"></path><path d="M64.4917 45.8475C64.631 45.8475 64.7672 45.8062 64.8831 45.7287C64.9989 45.6513 65.0892 45.5413 65.1425 45.4126C65.1959 45.2839 65.2098 45.1422 65.1826 45.0056C65.1555 44.8689 65.0884 44.7434 64.9899 44.6449C64.8913 44.5463 64.7658 44.4792 64.6292 44.452C64.4925 44.4248 64.3509 44.4388 64.2221 44.4921C64.0934 44.5454 63.9834 44.6357 63.9059 44.7515C63.8285 44.8674 63.7872 45.0035 63.7872 45.1429C63.7872 45.2354 63.8054 45.327 63.8408 45.4125C63.8762 45.498 63.9281 45.5757 63.9935 45.6411C64.0589 45.7065 64.1366 45.7584 64.222 45.7938C64.3075 45.8292 64.3991 45.8475 64.4917 45.8475Z" fill="white"></path><path d="M60.7343 45.8475C60.8737 45.8475 61.0099 45.8062 61.1257 45.7287C61.2416 45.6513 61.3319 45.5413 61.3852 45.4126C61.4385 45.2839 61.4525 45.1422 61.4253 45.0056C61.3981 44.8689 61.331 44.7434 61.2325 44.6449C61.134 44.5463 61.0085 44.4792 60.8718 44.452C60.7352 44.4248 60.5935 44.4388 60.4648 44.4921C60.3361 44.5454 60.226 44.6357 60.1486 44.7515C60.0712 44.8674 60.0299 45.0035 60.0298 45.1429C60.0298 45.2354 60.048 45.327 60.0834 45.4125C60.1188 45.498 60.1707 45.5757 60.2362 45.6411C60.3016 45.7065 60.3792 45.7584 60.4647 45.7938C60.5502 45.8292 60.6418 45.8475 60.7343 45.8475Z" fill="white"></path></g><defs><clipPath id="clip0_790_20"><rect width="45.2608" height="48" fill="white" transform="translate(29 28)"></rect></clipPath></defs></svg>