<svg xmlns="http://www.w3.org/2000/svg" width="104" height="104" viewBox="0 0 104 104" fill="none"><rect width="104" height="104" rx="52" fill="#FF5722"></rect><g clip-path="url(#clip0_793_234)"><path d="M66.8161 39.2251V43.0134C66.8161 43.2002 66.8903 43.3794 67.0225 43.5116C67.1546 43.6437 67.3338 43.7179 67.5207 43.7179C67.7075 43.7179 67.8867 43.6437 68.0189 43.5116C68.151 43.3794 68.2252 43.2002 68.2252 43.0134V39.3911L70.4052 35.031C70.454 34.9332 70.4795 34.8253 70.4797 34.716V28.7046C70.4774 28.5747 70.4395 28.4479 70.3703 28.3381C70.301 28.2282 70.203 28.1394 70.0868 28.0813C69.9707 28.0232 69.8408 27.998 69.7114 28.0085C69.5819 28.0191 69.4578 28.0648 69.3525 28.1409L66.7692 30.0783L64.186 28.1409C64.064 28.0494 63.9157 28 63.7632 28C63.6108 28 63.4625 28.0494 63.3405 28.1409L60.7573 30.0783L58.1742 28.1409C58.0523 28.0494 57.904 28 57.7515 28C57.5991 28 57.4507 28.0494 57.3288 28.1409L54.7456 30.0783L52.1625 28.1409C52.0406 28.0494 51.8922 28 51.7398 28C51.5873 28 51.439 28.0494 51.3171 28.1409L48.7339 30.0783L46.1508 28.1409C46.0288 28.0494 45.8805 28 45.7281 28C45.5756 28 45.4273 28.0494 45.3053 28.1409L42.7221 30.0783L40.139 28.1409C40.017 28.0494 39.8687 28 39.7162 28C39.5638 28 39.4155 28.0494 39.2935 28.1409L36.7104 30.0783L34.1272 28.1409C34.022 28.0648 33.8978 28.0189 33.7684 28.0084C33.6389 27.9979 33.509 28.023 33.3928 28.0811C33.2766 28.1392 33.1785 28.228 33.1093 28.338C33.04 28.4479 33.0022 28.5747 33 28.7046V34.7163C33.0002 34.8257 33.0257 34.9335 33.0745 35.0314L35.2545 39.3915V64.6087L33.0745 68.9687C33.0257 69.0666 33.0002 69.1744 33 69.2837V75.2955C33.0023 75.4253 33.0401 75.5521 33.1093 75.662C33.1785 75.7719 33.2766 75.8607 33.3928 75.9188C33.5089 75.9769 33.6388 76.0021 33.7683 75.9916C33.8978 75.981 34.0219 75.9352 34.1271 75.8591L36.7103 73.9218L39.2935 75.8591C39.4155 75.9506 39.5638 76 39.7162 76C39.8687 76 40.017 75.9506 40.139 75.8591L42.7221 73.9218L45.3053 75.8591C45.4273 75.9506 45.5756 76 45.7281 76C45.8805 76 46.0288 75.9506 46.1508 75.8591L48.734 73.9218L51.3172 75.8591C51.4391 75.9506 51.5874 76 51.7399 76C51.8923 76 52.0406 75.9506 52.1626 75.8591L54.7458 73.9218L57.329 75.8591C57.4509 75.9506 57.5993 76 57.7517 76C57.9041 76 58.0525 75.9506 58.1744 75.8591L60.7576 73.9218L63.3408 75.8591C63.4628 75.9506 63.6111 76 63.7635 76C63.916 76 64.0643 75.9506 64.1862 75.8591L66.7694 73.9218L69.3526 75.8591C69.4579 75.9352 69.582 75.9809 69.7114 75.9914C69.8409 76.0019 69.9707 75.9767 70.0869 75.9186C70.203 75.8606 70.3011 75.7718 70.3703 75.6619C70.4396 75.552 70.4774 75.4253 70.4798 75.2955V69.2837C70.4795 69.1744 70.454 69.0665 70.4053 68.9687L68.2253 64.6085V46.458C68.2253 46.2711 68.1511 46.0919 68.0189 45.9598C67.8868 45.8276 67.7076 45.7534 67.5208 45.7534C67.3339 45.7534 67.1547 45.8276 67.0226 45.9598C66.8904 46.0919 66.8162 46.2711 66.8162 46.458V64.775C66.8162 64.8844 66.8417 64.9923 66.8907 65.0901L68.6356 68.5796H34.8445L36.5891 65.0904C36.638 64.9926 36.6635 64.8847 36.6635 64.7753V39.2251C36.6635 39.1157 36.638 39.0078 36.5891 38.91L34.8445 35.4207H68.6351L66.8906 38.9099C66.8416 39.0077 66.8161 39.1157 66.8161 39.2251ZM69.0706 69.9883V73.8866L67.1918 72.4775C67.0699 72.3861 66.9215 72.3366 66.7691 72.3366C66.6167 72.3366 66.4683 72.3861 66.3464 72.4775L63.7632 74.4149L61.18 72.4775C61.0581 72.3861 60.9097 72.3366 60.7573 72.3366C60.6048 72.3366 60.4565 72.3861 60.3346 72.4775L57.7514 74.4149L55.1682 72.4775C55.0462 72.3861 54.8979 72.3366 54.7455 72.3366C54.593 72.3366 54.4447 72.3861 54.3227 72.4775L51.7396 74.4149L49.1565 72.4775C49.0345 72.3861 48.8862 72.3366 48.7337 72.3366C48.5813 72.3366 48.433 72.3861 48.311 72.4775L45.7278 74.4149L43.1449 72.4775C43.023 72.3861 42.8746 72.3366 42.7222 72.3366C42.5697 72.3366 42.4214 72.3861 42.2995 72.4775L39.7162 74.4149L37.133 72.4775C37.011 72.3861 36.8627 72.3366 36.7103 72.3366C36.5578 72.3366 36.4095 72.3861 36.2876 72.4775L34.4089 73.8865V69.9881L69.0706 69.9883ZM34.4091 34.0117V30.1134L36.2877 31.5223C36.4097 31.6138 36.558 31.6632 36.7105 31.6632C36.8629 31.6632 37.0112 31.6138 37.1332 31.5223L39.7164 29.5851L42.2996 31.5223C42.4215 31.6138 42.5698 31.6632 42.7223 31.6632C42.8747 31.6632 43.023 31.6138 43.145 31.5223L45.7282 29.5849L48.3114 31.5223C48.4333 31.6138 48.5817 31.6632 48.7341 31.6632C48.8865 31.6632 49.0349 31.6138 49.1568 31.5223L51.7396 29.5851L54.3229 31.5223C54.4449 31.6138 54.5932 31.6632 54.7456 31.6632C54.8981 31.6632 55.0464 31.6138 55.1684 31.5223L57.7516 29.5849L60.3344 31.5223C60.4563 31.6138 60.6047 31.6632 60.7571 31.6632C60.9095 31.6632 61.0579 31.6138 61.1798 31.5223L63.763 29.5849L66.3466 31.5223C66.4685 31.6138 66.6169 31.6632 66.7693 31.6632C66.9217 31.6632 67.0701 31.6138 67.192 31.5223L69.0707 30.1133V34.0116L34.4091 34.0117Z" fill="white"></path><path d="M60.0417 46.8859C59.4652 46.3098 58.715 45.9395 57.9071 45.8323C57.8333 45.2777 57.6351 44.747 57.3272 44.2798C57.0193 43.8127 56.6098 43.4212 56.1292 43.1347C55.6487 42.8482 55.1096 42.6741 54.5522 42.6254C53.9948 42.5767 53.4337 42.6547 52.9107 42.8535C52.3878 43.0524 51.9165 43.3669 51.5323 43.7736C51.1481 44.1803 50.8608 44.6686 50.692 45.202C50.5232 45.7354 50.4772 46.3001 50.5574 46.8538C50.6377 47.4075 50.8421 47.9358 51.1554 48.3994L47.8063 51.7485C47.3428 51.4348 46.8143 51.2302 46.2604 51.1497C45.7065 51.0693 45.1416 51.1152 44.608 51.2839C44.0743 51.4527 43.5858 51.74 43.1789 52.1243C42.772 52.5087 42.4574 52.98 42.2584 53.5032C42.0595 54.0263 41.9815 54.5877 42.0303 55.1453C42.079 55.7028 42.2532 56.2421 42.5399 56.7228C42.8266 57.2035 43.2183 57.6131 43.6857 57.921C44.1531 58.2289 44.6841 58.4271 45.2389 58.5007C45.3129 59.0551 45.5114 59.5856 45.8193 60.0526C46.1273 60.5195 46.5369 60.9108 47.0174 61.1971C47.4979 61.4834 48.0369 61.6573 48.5942 61.7059C49.1514 61.7545 49.7124 61.6765 50.2353 61.4777C50.7581 61.2789 51.2292 60.9644 51.6133 60.5579C51.9975 60.1513 52.2848 59.6631 52.4536 59.1299C52.6225 58.5966 52.6686 58.0321 52.5885 57.4785C52.5084 56.9249 52.3042 56.3966 51.9912 55.9331L55.3401 52.5841C56.1047 53.101 57.0345 53.3144 57.948 53.1827C58.8614 53.051 59.6931 52.5835 60.2804 51.8716C60.8678 51.1597 61.1688 50.2545 61.1247 49.3326C61.0805 48.4107 60.6944 47.5384 60.0417 46.8859ZM59.0454 51.1369C58.6135 51.5679 58.0282 51.81 57.4181 51.81C56.8079 51.81 56.2227 51.5679 55.7908 51.1369C55.6587 51.0048 55.4795 50.9306 55.2926 50.9306C55.1058 50.9306 54.9266 51.0048 54.7944 51.1369L50.5435 55.3879C50.4131 55.5209 50.34 55.6997 50.34 55.886C50.34 56.0723 50.4131 56.2512 50.5435 56.3842C50.8157 56.6561 51.0153 56.9919 51.1242 57.3608C51.2331 57.7297 51.2478 58.1201 51.1669 58.4962C51.086 58.8723 50.9121 59.2221 50.6612 59.5136C50.4102 59.8052 50.0902 60.0292 49.7303 60.1651C49.3705 60.3011 48.9823 60.3447 48.6013 60.2919C48.2202 60.2392 47.8585 60.0917 47.5491 59.8631C47.2397 59.6345 46.9926 59.3319 46.8303 58.9832C46.6681 58.6344 46.5958 58.2505 46.6201 57.8666C46.6252 57.7671 46.6094 57.6677 46.5737 57.5747C46.5379 57.4817 46.4831 57.3973 46.4126 57.3269C46.3422 57.2564 46.2578 57.2016 46.1648 57.1658C46.0718 57.1301 45.9724 57.1143 45.8729 57.1194C45.4891 57.1436 45.1054 57.0713 44.7567 56.909C44.4081 56.7467 44.1057 56.4996 43.8771 56.1903C43.6486 55.881 43.5012 55.5194 43.4485 55.1384C43.3958 54.7575 43.4394 54.3694 43.5753 54.0096C43.7112 53.6499 43.9351 53.3299 44.2266 53.079C44.518 52.8281 44.8677 52.6543 45.2437 52.5734C45.6197 52.4925 46.0099 52.5071 46.3788 52.6159C46.7476 52.7247 47.0833 52.9242 47.3552 53.1962C47.4883 53.3266 47.6671 53.3996 47.8534 53.3996C48.0397 53.3996 48.2186 53.3266 48.3516 53.1962L52.6027 48.9449C52.6681 48.8795 52.72 48.8019 52.7554 48.7164C52.7908 48.6309 52.8091 48.5393 52.8091 48.4468C52.8091 48.3543 52.7908 48.2627 52.7554 48.1772C52.72 48.0918 52.6681 48.0141 52.6027 47.9487C52.3305 47.6768 52.1309 47.3411 52.022 46.9721C51.9131 46.6032 51.8984 46.2128 51.9792 45.8367C52.0601 45.4606 52.234 45.1108 52.4849 44.8192C52.7359 44.5277 53.0559 44.3037 53.4157 44.1677C53.7756 44.0317 54.1638 43.9881 54.5448 44.0409C54.9259 44.0936 55.2876 44.2411 55.597 44.4697C55.9064 44.6983 56.1535 45.0009 56.3158 45.3496C56.4781 45.6984 56.5504 46.0823 56.526 46.4662C56.5209 46.5657 56.5367 46.6652 56.5724 46.7581C56.6082 46.8511 56.663 46.9356 56.7335 47.006C56.8039 47.0764 56.8883 47.1313 56.9813 47.1671C57.0743 47.2028 57.1737 47.2186 57.2732 47.2135C57.7398 47.1839 58.2043 47.2971 58.605 47.5381C59.0056 47.7791 59.3233 48.1364 59.5158 48.5625C59.7082 48.9886 59.7663 49.4632 59.6823 49.9231C59.5982 50.383 59.3761 50.8064 59.0454 51.1369Z" fill="white"></path><path d="M54.1971 46.9931C54.3364 46.9931 54.4726 46.9518 54.5885 46.8743C54.7044 46.7969 54.7947 46.6869 54.848 46.5582C54.9013 46.4294 54.9153 46.2878 54.8881 46.1511C54.8609 46.0144 54.7938 45.8889 54.6953 45.7903C54.5967 45.6918 54.4712 45.6247 54.3345 45.5975C54.1979 45.5703 54.0562 45.5843 53.9275 45.6376C53.7987 45.6909 53.6887 45.7812 53.6113 45.8971C53.5339 46.013 53.4925 46.1492 53.4925 46.2885C53.4925 46.4754 53.5668 46.6546 53.6989 46.7867C53.831 46.9189 54.0102 46.9931 54.1971 46.9931Z" fill="white"></path><path d="M51.6393 52.871C51.7786 52.871 51.9149 52.8297 52.0307 52.7523C52.1466 52.6749 52.2369 52.5648 52.2902 52.4361C52.3435 52.3073 52.3575 52.1657 52.3303 52.029C52.3031 51.8923 52.236 51.7668 52.1375 51.6683C52.039 51.5697 51.9134 51.5026 51.7768 51.4755C51.6401 51.4483 51.4984 51.4622 51.3697 51.5155C51.2409 51.5689 51.1309 51.6592 51.0535 51.775C50.9761 51.8909 50.9348 52.0271 50.9348 52.1665C50.9348 52.3533 51.009 52.5325 51.1411 52.6647C51.2732 52.7968 51.4524 52.871 51.6393 52.871Z" fill="white"></path><path d="M57.3514 50.2148C57.4907 50.2148 57.6269 50.1734 57.7428 50.096C57.8586 50.0186 57.949 49.9086 58.0023 49.7798C58.0556 49.6511 58.0696 49.5094 58.0424 49.3728C58.0152 49.2361 57.9481 49.1106 57.8496 49.012C57.751 48.9135 57.6255 48.8464 57.4888 48.8192C57.3521 48.792 57.2105 48.806 57.0817 48.8593C56.953 48.9126 56.843 49.0029 56.7656 49.1188C56.6881 49.2346 56.6468 49.3709 56.6468 49.5102C56.6468 49.6971 56.721 49.8763 56.8532 50.0084C56.9853 50.1405 57.1645 50.2148 57.3514 50.2148Z" fill="white"></path><path d="M45.7281 55.4618C45.8674 55.4618 46.0037 55.4205 46.1195 55.3431C46.2354 55.2657 46.3257 55.1556 46.379 55.0269C46.4323 54.8982 46.4463 54.7565 46.4191 54.6198C46.3919 54.4832 46.3248 54.3576 46.2263 54.2591C46.1278 54.1606 46.0022 54.0935 45.8656 54.0663C45.7289 54.0391 45.5872 54.053 45.4585 54.1064C45.3297 54.1597 45.2197 54.25 45.1423 54.3659C45.0649 54.4817 45.0236 54.6179 45.0236 54.7573C45.0236 54.9441 45.0978 55.1233 45.2299 55.2555C45.362 55.3876 45.5412 55.4618 45.7281 55.4618Z" fill="white"></path><path d="M48.8832 58.6835C49.0226 58.6835 49.1588 58.6422 49.2746 58.5648C49.3905 58.4874 49.4808 58.3773 49.5341 58.2486C49.5874 58.1198 49.6014 57.9782 49.5742 57.8415C49.547 57.7048 49.4799 57.5793 49.3814 57.4808C49.2829 57.3822 49.1573 57.3151 49.0207 57.288C48.884 57.2608 48.7423 57.2747 48.6136 57.328C48.4848 57.3814 48.3748 57.4717 48.2974 57.5875C48.22 57.7034 48.1787 57.8396 48.1787 57.979C48.1787 58.1658 48.2529 58.345 48.385 58.4772C48.5171 58.6093 48.6963 58.6835 48.8832 58.6835Z" fill="white"></path><path d="M51.7398 37.0176C51.3032 37.0176 50.8764 37.147 50.5134 37.3896C50.1504 37.6321 49.8674 37.9769 49.7003 38.3802C49.5332 38.7836 49.4895 39.2274 49.5747 39.6557C49.6598 40.0839 49.8701 40.4772 50.1788 40.786C50.4875 41.0947 50.8808 41.3049 51.309 41.3901C51.7373 41.4753 52.1811 41.4316 52.5845 41.2645C52.9879 41.0974 53.3326 40.8145 53.5752 40.4515C53.8178 40.0885 53.9472 39.6617 53.9472 39.2251C53.9466 38.6398 53.7138 38.0787 53.3 37.6649C52.8862 37.2511 52.3251 37.0183 51.7398 37.0176ZM51.7398 40.0234C51.582 40.0234 51.4277 39.9765 51.2965 39.8889C51.1652 39.8012 51.063 39.6765 51.0026 39.5307C50.9422 39.3849 50.9264 39.2244 50.9571 39.0696C50.9879 38.9148 51.0639 38.7727 51.1755 38.6611C51.2872 38.5494 51.4293 38.4734 51.5841 38.4427C51.7389 38.4119 51.8994 38.4277 52.0452 38.4881C52.191 38.5485 52.3157 38.6507 52.4034 38.782C52.491 38.9132 52.5378 39.0675 52.5378 39.2253C52.5375 39.4369 52.4533 39.6396 52.3037 39.7892C52.1541 39.9388 51.9514 40.023 51.7398 40.0234Z" fill="white"></path><path d="M59.2545 37.0176C58.8179 37.0176 58.3911 37.147 58.0281 37.3896C57.665 37.6321 57.3821 37.9769 57.215 38.3802C57.0479 38.7836 57.0042 39.2274 57.0893 39.6557C57.1745 40.0839 57.3847 40.4772 57.6934 40.786C58.0022 41.0947 58.3955 41.3049 58.8237 41.3901C59.2519 41.4753 59.6958 41.4316 60.0991 41.2645C60.5025 41.0974 60.8473 40.8145 61.0898 40.4515C61.3324 40.0885 61.4619 39.6617 61.4619 39.2251C61.4612 38.6398 61.2285 38.0787 60.8146 37.6649C60.4008 37.2511 59.8397 37.0183 59.2545 37.0176ZM59.2545 40.0234C59.0967 40.0234 58.9424 39.9765 58.8111 39.8889C58.6799 39.8012 58.5776 39.6765 58.5172 39.5307C58.4568 39.3849 58.441 39.2244 58.4718 39.0696C58.5026 38.9148 58.5786 38.7727 58.6902 38.6611C58.8018 38.5494 58.944 38.4734 59.0988 38.4427C59.2536 38.4119 59.4141 38.4277 59.5599 38.4881C59.7057 38.5485 59.8303 38.6507 59.918 38.782C60.0057 38.9132 60.0525 39.0675 60.0525 39.2253C60.0521 39.4369 59.968 39.6396 59.8184 39.7892C59.6688 39.9388 59.466 40.023 59.2545 40.0234Z" fill="white"></path><path d="M44.2251 37.0176C43.7885 37.0176 43.3617 37.147 42.9986 37.3896C42.6356 37.6321 42.3527 37.9769 42.1856 38.3802C42.0185 38.7836 41.9747 39.2274 42.0599 39.6557C42.1451 40.0839 42.3553 40.4772 42.664 40.786C42.9727 41.0947 43.3661 41.3049 43.7943 41.3901C44.2225 41.4753 44.6664 41.4316 45.0697 41.2645C45.4731 41.0974 45.8179 40.8145 46.0604 40.4515C46.303 40.0885 46.4325 39.6617 46.4325 39.2251C46.4318 38.6398 46.199 38.0787 45.7852 37.6649C45.3714 37.2511 44.8103 37.0183 44.2251 37.0176ZM44.2251 40.0234C44.0672 40.0234 43.913 39.9765 43.7817 39.8889C43.6505 39.8012 43.5482 39.6765 43.4878 39.5307C43.4274 39.3849 43.4116 39.2244 43.4424 39.0696C43.4732 38.9148 43.5492 38.7727 43.6608 38.6611C43.7724 38.5494 43.9146 38.4734 44.0694 38.4427C44.2242 38.4119 44.3846 38.4277 44.5305 38.4881C44.6763 38.5485 44.8009 38.6507 44.8886 38.782C44.9763 38.9132 45.0231 39.0675 45.0231 39.2253C45.0227 39.4369 44.9385 39.6396 44.789 39.7892C44.6394 39.9388 44.4366 40.023 44.2251 40.0234Z" fill="white"></path><path d="M51.7398 62.5674C51.3032 62.5674 50.8764 62.6968 50.5134 62.9394C50.1504 63.1819 49.8674 63.5267 49.7003 63.93C49.5332 64.3334 49.4895 64.7772 49.5747 65.2055C49.6598 65.6337 49.8701 66.027 50.1788 66.3358C50.4875 66.6445 50.8808 66.8547 51.309 66.9399C51.7373 67.0251 52.1811 66.9814 52.5845 66.8143C52.9879 66.6472 53.3326 66.3643 53.5752 66.0013C53.8178 65.6383 53.9472 65.2115 53.9472 64.7749C53.9466 64.1896 53.7138 63.6285 53.3 63.2147C52.8862 62.8009 52.3251 62.5681 51.7398 62.5674ZM51.7398 65.5732C51.582 65.5732 51.4277 65.5264 51.2965 65.4388C51.1652 65.3511 51.063 65.2264 51.0026 65.0806C50.9422 64.9348 50.9264 64.7743 50.9571 64.6195C50.9879 64.4647 51.0639 64.3226 51.1755 64.2109C51.2872 64.0993 51.4293 64.0233 51.5841 63.9925C51.7389 63.9618 51.8994 63.9776 52.0452 64.038C52.191 64.0984 52.3157 64.2006 52.4034 64.3319C52.491 64.4631 52.5378 64.6174 52.5378 64.7752C52.5375 64.9868 52.4533 65.1895 52.3037 65.3391C52.1541 65.4887 51.9514 65.5729 51.7398 65.5732Z" fill="white"></path><path d="M59.2545 62.5674C58.8179 62.5674 58.3911 62.6968 58.0281 62.9394C57.665 63.1819 57.3821 63.5267 57.215 63.93C57.0479 64.3334 57.0042 64.7772 57.0893 65.2055C57.1745 65.6337 57.3847 66.027 57.6934 66.3358C58.0022 66.6445 58.3955 66.8547 58.8237 66.9399C59.2519 67.0251 59.6958 66.9814 60.0991 66.8143C60.5025 66.6472 60.8473 66.3643 61.0898 66.0013C61.3324 65.6383 61.4619 65.2115 61.4619 64.7749C61.4612 64.1896 61.2285 63.6285 60.8146 63.2147C60.4008 62.8009 59.8397 62.5681 59.2545 62.5674ZM59.2545 65.5732C59.0967 65.5732 58.9424 65.5264 58.8111 65.4388C58.6799 65.3511 58.5776 65.2264 58.5172 65.0806C58.4568 64.9348 58.441 64.7743 58.4718 64.6195C58.5026 64.4647 58.5786 64.3226 58.6902 64.2109C58.8018 64.0993 58.944 64.0233 59.0988 63.9925C59.2536 63.9618 59.4141 63.9776 59.5599 64.038C59.7057 64.0984 59.8303 64.2006 59.918 64.3319C60.0057 64.4631 60.0525 64.6174 60.0525 64.7752C60.0521 64.9868 59.968 65.1895 59.8184 65.3391C59.6688 65.4887 59.466 65.5729 59.2545 65.5732Z" fill="white"></path><path d="M44.2251 62.5674C43.7885 62.5674 43.3617 62.6968 42.9986 62.9394C42.6356 63.1819 42.3527 63.5267 42.1856 63.93C42.0185 64.3334 41.9747 64.7772 42.0599 65.2055C42.1451 65.6337 42.3553 66.027 42.664 66.3358C42.9727 66.6445 43.3661 66.8547 43.7943 66.9399C44.2225 67.0251 44.6664 66.9814 45.0697 66.8143C45.4731 66.6472 45.8179 66.3643 46.0604 66.0013C46.303 65.6383 46.4325 65.2115 46.4325 64.7749C46.4318 64.1896 46.199 63.6285 45.7852 63.2147C45.3714 62.8009 44.8103 62.5681 44.2251 62.5674ZM44.2251 65.5732C44.0672 65.5732 43.913 65.5264 43.7817 65.4388C43.6505 65.3511 43.5482 65.2264 43.4878 65.0806C43.4274 64.9348 43.4116 64.7743 43.4424 64.6195C43.4732 64.4647 43.5492 64.3226 43.6608 64.2109C43.7724 64.0993 43.9146 64.0233 44.0694 63.9925C44.2242 63.9618 44.3846 63.9776 44.5305 64.038C44.6763 64.0984 44.8009 64.2006 44.8886 64.3319C44.9763 64.4631 45.0231 64.6174 45.0231 64.7752C45.0227 64.9868 44.9385 65.1895 44.789 65.3391C44.6394 65.4887 44.4366 65.5729 44.2251 65.5732Z" fill="white"></path></g><defs><clipPath id="clip0_793_234"><rect width="37.4798" height="48" fill="white" transform="translate(33 28)"></rect></clipPath></defs></svg>